<svg width="44" height="44" viewBox="0 0 44 44" fill="none" xmlns="http://www.w3.org/2000/svg">
<g clip-path="url(#clip0_213_907)">
<path d="M14.8434 8.60714H29.1576L32.2469 6.13571C33.2987 5.29643 33.6916 3.93393 33.2469 2.6625C32.8023 1.39107 31.6469 0.571426 30.3041 0.571426H13.6969C12.3541 0.571426 11.1987 1.39285 10.7541 2.6625C10.3094 3.93214 10.7023 5.29643 11.7523 6.13393L14.8434 8.60714Z" fill="#FFBB38"/>
<path d="M29.4019 11.2857H14.5984C9.72157 16.0732 5.92871 24.4732 5.92871 31.375C5.92871 37.3732 9.10371 43.4286 16.1966 43.4286H28.2501C34.3091 43.4286 38.0716 38.8089 38.0716 31.375C38.0716 24.4732 34.2787 16.0732 29.4019 11.2857ZM21.3216 26.0178H22.6787C24.7662 26.0178 26.4644 27.7161 26.4644 29.8036C26.4644 31.6803 25.1109 33.225 23.3394 33.5393V34.9446C23.3394 35.6839 22.7394 36.2839 22.0001 36.2839C21.2609 36.2839 20.6609 35.6839 20.6609 34.9446V33.6071H18.8751C18.1359 33.6071 17.5359 33.0071 17.5359 32.2678C17.5359 31.5286 18.1359 30.9286 18.8751 30.9286H22.6787C23.2894 30.9286 23.7859 30.4321 23.7859 29.8214C23.7859 29.1928 23.2894 28.6964 22.6787 28.6964H21.3216C19.2341 28.6964 17.5359 26.9982 17.5359 24.9107C17.5359 23.0339 18.8894 21.4893 20.6609 21.175V19.7678C20.6609 19.0286 21.2609 18.4286 22.0001 18.4286C22.7394 18.4286 23.3394 19.0286 23.3394 19.7678V21.1071H25.1251C25.8644 21.1071 26.4644 21.7071 26.4644 22.4464C26.4644 23.1857 25.8644 23.7857 25.1251 23.7857H21.3216C20.7109 23.7857 20.2144 24.2821 20.2144 24.8928C20.2144 25.5214 20.7109 26.0178 21.3216 26.0178Z" fill="#FFBB38"/>
</g>
<defs>
<clipPath id="clip0_213_907">
<rect width="42.8571" height="42.8571" fill="white" transform="translate(0.571533 0.571426)"/>
</clipPath>
</defs>
</svg>
