<svg width="56" height="56" viewBox="0 0 56 56" fill="none" xmlns="http://www.w3.org/2000/svg">
<path d="M26.25 38.5L23.7825 40.9675L28.2975 45.5H7V14H3.5V45.5C3.5 47.4303 5.06975 49 7 49H28.2975L23.7825 53.5325L26.25 56L35 47.25L26.25 38.5Z" fill="#0C8CE9"/>
<path d="M19.25 29.75C20.2165 29.75 21 28.9665 21 28C21 27.0335 20.2165 26.25 19.25 26.25C18.2835 26.25 17.5 27.0335 17.5 28C17.5 28.9665 18.2835 29.75 19.25 29.75Z" fill="#0C8CE9"/>
<path d="M42 35H14C12.0697 35 10.5 33.4303 10.5 31.5V24.5C10.5 22.5697 12.0697 21 14 21H42C43.9303 21 45.5 22.5697 45.5 24.5V31.5C45.5 33.4303 43.9303 35 42 35ZM14 24.5V31.5H42V24.5H14Z" fill="#0C8CE9"/>
<path d="M49 7H27.7025L32.2175 2.4675L29.75 0L21 8.75L29.75 17.5L32.2175 15.0325L27.7025 10.5H49V42H52.5V10.5C52.5 8.5715 50.9303 7 49 7Z" fill="#0C8CE9"/>
</svg>
