<svg width="28" height="28" viewBox="0 0 28 28" fill="none" xmlns="http://www.w3.org/2000/svg">
<path fill-rule="evenodd" clip-rule="evenodd" d="M6.62952 1.36027C11.5282 0.817897 16.4717 0.817897 21.3704 1.36027C24.0826 1.66427 26.2708 3.80019 26.589 6.52194C27.1695 11.4904 27.1695 16.5096 26.589 21.4781C26.2708 24.1999 24.0826 26.3358 21.3704 26.6398C16.4717 27.1821 11.5282 27.1821 6.62952 26.6398C3.91727 26.3358 1.72911 24.1999 1.41086 21.4781C0.830495 16.5101 0.830495 11.4915 1.41086 6.52352C1.57183 5.20123 2.17463 3.97205 3.12154 3.03519C4.06846 2.09833 5.30401 1.5087 6.62794 1.36186M13.9999 6.09444C14.3149 6.09444 14.6169 6.21955 14.8396 6.44225C15.0623 6.66495 15.1874 6.967 15.1874 7.28194V12.8125H20.718C21.033 12.8125 21.335 12.9376 21.5577 13.1603C21.7804 13.383 21.9055 13.6851 21.9055 14C21.9055 14.315 21.7804 14.617 21.5577 14.8397C21.335 15.0624 21.033 15.1875 20.718 15.1875H15.1874V20.7181C15.1874 21.0331 15.0623 21.3351 14.8396 21.5578C14.6169 21.7805 14.3149 21.9056 13.9999 21.9056C13.685 21.9056 13.383 21.7805 13.1603 21.5578C12.9376 21.3351 12.8124 21.0331 12.8124 20.7181V15.1875H7.28186C6.96691 15.1875 6.66487 15.0624 6.44217 14.8397C6.21947 14.617 6.09436 14.315 6.09436 14C6.09436 13.6851 6.21947 13.383 6.44217 13.1603C6.66487 12.9376 6.96691 12.8125 7.28186 12.8125H12.8124V7.28194C12.8124 6.967 12.9376 6.66495 13.1603 6.44225C13.383 6.21955 13.685 6.09444 13.9999 6.09444Z" fill="#0C8CE9"/>
</svg>
