<svg width="37" height="36" viewBox="0 0 37 36" fill="none" xmlns="http://www.w3.org/2000/svg">
<path d="M32.2585 10.5983C31.2732 11.0418 30.2124 11.3417 29.0996 11.4757C30.236 10.7865 31.1079 9.69367 31.5187 8.39182C30.4547 9.02998 29.279 9.49424 28.023 9.74313C27.0219 8.65985 25.5912 7.9834 24.0078 7.9834C20.9716 7.9834 18.5084 10.4802 18.5084 13.5593C18.5084 13.9965 18.5556 14.4208 18.65 14.8293C14.0776 14.5963 10.0247 12.3787 7.30959 9.00127C6.83583 9.82768 6.56511 10.7865 6.56511 11.8076C6.56511 13.7412 7.53624 15.4483 9.01262 16.4486C8.11232 16.4215 7.26237 16.1678 6.51946 15.753V15.8216C6.51946 18.5242 8.41609 20.7785 10.9344 21.2891C10.4733 21.4199 9.98691 21.4853 9.48481 21.4853C9.13067 21.4853 8.7844 21.4518 8.44914 21.3864C9.14956 23.6008 11.18 25.2137 13.5881 25.2568C11.7057 26.7533 9.33214 27.6451 6.75556 27.6451C6.3117 27.6451 5.87256 27.6196 5.44287 27.5686C7.8778 29.148 10.7707 30.0717 13.8762 30.0717C23.9968 30.0717 29.5293 21.5762 29.5293 14.2071C29.5293 13.9646 29.5245 13.7221 29.5151 13.4843C30.5901 12.6978 31.5235 11.7166 32.2585 10.5983Z" fill="white"/>
</svg>
