<svg width="34" height="35" viewBox="0 0 34 35" fill="none" xmlns="http://www.w3.org/2000/svg">
<g clip-path="url(#clip0_215_1982)">
<path d="M16.6077 17.1579C18.8376 17.1579 20.7686 16.3579 22.3463 14.7795C23.924 13.2014 24.7238 11.2704 24.7238 9.03961C24.7238 6.80957 23.924 4.87835 22.346 3.29968C20.7681 1.72179 18.8374 0.921783 16.6077 0.921783C14.3776 0.921783 12.4471 1.72179 10.8694 3.29994C9.29173 4.87809 8.4917 6.80932 8.4917 9.03961C8.4917 11.2704 9.29173 13.2016 10.8697 14.7798C12.4477 16.3577 14.3783 17.1579 16.6077 17.1579Z" fill="#0C8CE9"/>
<path d="M30.8088 26.8398C30.7633 26.183 30.6713 25.4666 30.5358 24.71C30.399 23.9478 30.2229 23.2273 30.0121 22.5687C29.7944 21.888 29.4982 21.2158 29.1321 20.5717C28.7522 19.9031 28.3059 19.3209 27.8051 18.8418C27.2814 18.3406 26.6402 17.9376 25.8988 17.6437C25.16 17.3513 24.3412 17.2032 23.4653 17.2032C23.1213 17.2032 22.7887 17.3444 22.1462 17.7628C21.7508 18.0207 21.2883 18.319 20.7721 18.6489C20.3307 18.9302 19.7328 19.1938 18.9942 19.4325C18.2736 19.6657 17.5419 19.784 16.8198 19.784C16.0976 19.784 15.3662 19.6657 14.6449 19.4325C13.9071 19.1941 13.3091 18.9305 12.8682 18.6492C12.3569 18.3223 11.8941 18.024 11.4928 17.7625C10.8511 17.3441 10.5182 17.2029 10.1742 17.2029C9.29812 17.2029 8.47957 17.3513 7.74098 17.644C7.00007 17.9374 6.35866 18.3403 5.83447 18.842C5.33394 19.3214 4.88739 19.9033 4.50794 20.5717C4.14211 21.2158 3.84595 21.8878 3.62795 22.569C3.4174 23.2275 3.2413 23.9478 3.10453 24.71C2.96905 25.4655 2.87702 26.1822 2.83152 26.8405C2.78678 27.4855 2.76416 28.1549 2.76416 28.8309C2.76416 30.5904 3.32331 32.0147 4.42593 33.0652C5.51492 34.1018 6.95586 34.6277 8.70812 34.6277H24.933C26.6852 34.6277 28.1257 34.102 29.2149 33.0652C30.3178 32.0155 30.8769 30.5909 30.8769 28.8307C30.8767 28.1515 30.8538 27.4816 30.8088 26.8398Z" fill="#0C8CE9"/>
</g>
<defs>
<clipPath id="clip0_215_1982">
<rect width="33.696" height="33.7058" fill="white" transform="translate(0 0.921783)"/>
</clipPath>
</defs>
</svg>
