<svg width="25" height="29" viewBox="0 0 25 29" fill="none" xmlns="http://www.w3.org/2000/svg">
<path d="M21.7215 11.75H24V25.75C24 26.2141 23.8156 26.6593 23.4874 26.9874C23.1593 27.3156 22.7141 27.5 22.25 27.5H3C2.53587 27.5 2.09075 27.3156 1.76256 26.9874C1.43437 26.6593 1.25 26.2141 1.25 25.75V3C1.25 2.53587 1.43437 2.09075 1.76256 1.76256C2.09075 1.43437 2.53587 1.25 3 1.25H14.375V8.25C14.375 9.0515 14.6445 9.79 15.0977 10.3798L13.955 11.5575L10.1855 15.446L9.58175 14.8107L8.37775 13.542L7.10725 14.7478L4.56975 17.1592L3.301 18.3633L4.5085 19.632L8.8765 24.2327L10.133 25.554L11.4017 24.245L18.9793 16.4313L20.199 15.1747L18.9425 13.9567L16.4313 11.519L16.2633 11.358C16.7463 11.6082 17.294 11.75 17.875 11.75H21.7215Z" fill="#B1B1B1" stroke="#B1B1B1" stroke-width="2" stroke-linecap="square"/>
</svg>
