<svg width="37" height="36" viewBox="0 0 37 36" fill="none" xmlns="http://www.w3.org/2000/svg">
<path fill-rule="evenodd" clip-rule="evenodd" d="M29.1376 22.8474L25.3536 22.4204C24.4449 22.3173 23.551 22.6265 22.9104 23.2597L20.1693 25.9692C15.9532 23.8487 12.497 20.4471 10.3518 16.2651L13.1078 13.5409C13.7484 12.9077 14.0612 12.0241 13.957 11.1259L13.5249 7.41502C13.3462 5.92774 12.0799 4.80859 10.5603 4.80859H7.98304C6.29961 4.80859 4.89924 6.1928 5.00352 7.85679C5.79309 20.4324 15.9681 30.4752 28.6758 31.2557C30.3592 31.3588 31.7596 29.9746 31.7596 28.3106V25.7631C31.7745 24.2758 30.6423 23.0241 29.1376 22.8474Z" fill="white"/>
</svg>
