<svg width="36" height="36" viewBox="0 0 36 36" fill="none" xmlns="http://www.w3.org/2000/svg">
<path fill-rule="evenodd" clip-rule="evenodd" d="M17.5985 20.6274C16.2662 20.6274 12.994 20.6315 12.994 20.6315V17.424H21.1736C21.7433 21.3051 20.0248 27.1268 12.994 27.1268C8.29018 27.1268 4.47705 23.5007 4.47705 19.0278C4.47705 14.5548 8.29018 10.9287 12.994 10.9287C15.2011 10.9287 17.2121 11.7271 18.7252 13.0367C17.5527 14.0896 17.1768 14.491 16.8574 14.8321C16.6913 15.0095 16.5405 15.1705 16.3007 15.3985C15.4255 14.7103 14.4714 14.2164 12.994 14.2164C10.1997 14.2164 8.01874 16.3706 8.01874 19.0278C8.01874 21.685 10.1997 23.8391 12.994 23.8391C15.7551 23.8391 16.877 22.7067 17.5985 20.6274ZM28.3421 14.7779V17.5845H31.2935V19.5893H28.3421V22.476H26.234V19.5893H23.1982V17.5845H26.234V14.7779H28.3421Z" fill="white"/>
</svg>
