<svg width="37" height="36" viewBox="0 0 37 36" fill="none" xmlns="http://www.w3.org/2000/svg">
<path fill-rule="evenodd" clip-rule="evenodd" d="M8.10713 12.0651H8.06929C6.17732 12.0651 4.95068 10.8416 4.95068 9.29069C4.95068 7.7096 6.21358 6.51172 8.1434 6.51172C10.0716 6.51172 11.2573 7.70659 11.2951 9.28616C11.2951 10.8371 10.0716 12.0651 8.10713 12.0651ZM31.7666 30.0725H25.84V21.7899C25.84 19.622 24.913 18.142 22.8743 18.142C21.315 18.142 20.4479 19.1407 20.0443 20.1032C19.911 20.4074 19.9134 20.8169 19.9159 21.2389C19.9162 21.2962 19.9166 21.3537 19.9166 21.4113V30.0725H14.0451C14.0451 30.0725 14.1208 15.4007 14.0451 14.067H19.9166V16.579C20.2634 15.4807 22.1396 13.9132 25.1337 13.9132C28.8483 13.9132 31.7666 16.2154 31.7666 21.1729V30.0725ZM10.8545 14.0671H5.62793V30.0726H10.8545V14.0671Z" fill="white"/>
</svg>
