<svg width="37" height="36" viewBox="0 0 37 36" fill="none" xmlns="http://www.w3.org/2000/svg">
<path d="M19.2567 31.5441H6.41361C5.59598 31.5441 4.93359 30.889 4.93359 30.0811V6.501C4.93359 5.69292 5.59608 5.03809 6.41361 5.03809H30.2693C31.0866 5.03809 31.7492 5.69292 31.7492 6.501V30.0811C31.7492 30.8891 31.0865 31.5441 30.2693 31.5441H23.436V21.2795H26.9216L27.4435 17.2792H23.436V14.7253C23.436 13.5671 23.7614 12.7778 25.4416 12.7778L27.5846 12.7769V9.19903C27.214 9.15028 25.9419 9.04136 24.4618 9.04136C21.372 9.04136 19.2567 10.9056 19.2567 14.3291V17.2792H15.7622V21.2795H19.2567V31.5441Z" fill="white"/>
</svg>
