<svg width="64" height="64" viewBox="0 0 64 64" fill="none" xmlns="http://www.w3.org/2000/svg">
<path d="M32.0001 10.6667C34.8291 10.6667 37.5422 11.7905 39.5426 13.7909C41.5429 15.7913 42.6667 18.5044 42.6667 21.3333C42.6667 24.1623 41.5429 26.8754 39.5426 28.8758C37.5422 30.8762 34.8291 32 32.0001 32C29.1711 32 26.458 30.8762 24.4576 28.8758C22.4572 26.8754 21.3334 24.1623 21.3334 21.3333C21.3334 18.5044 22.4572 15.7913 24.4576 13.7909C26.458 11.7905 29.1711 10.6667 32.0001 10.6667ZM32.0001 37.3333C43.7868 37.3333 53.3334 42.1067 53.3334 48V53.3333H10.6667V48C10.6667 42.1067 20.2134 37.3333 32.0001 37.3333Z" fill="#0C8CE9"/>
</svg>
