<svg width="37" height="36" viewBox="0 0 37 36" fill="none" xmlns="http://www.w3.org/2000/svg">
<path fill-rule="evenodd" clip-rule="evenodd" d="M7.9375 13.7268C7.9375 8.02805 12.6004 3.41895 18.3658 3.41895C24.1312 3.41895 28.7941 8.02805 28.7941 13.7268C28.7941 19.8674 22.2094 28.3346 19.5129 31.5595C18.917 32.2663 17.8295 32.2663 17.2336 31.5595C14.5222 28.3346 7.9375 19.8674 7.9375 13.7268ZM14.6413 13.7269C14.6413 15.759 16.3098 17.4083 18.3657 17.4083C20.4215 17.4083 22.0901 15.759 22.0901 13.7269C22.0901 11.6947 20.4215 10.0455 18.3657 10.0455C16.3098 10.0455 14.6413 11.6947 14.6413 13.7269Z" fill="white"/>
</svg>
