<svg width="34" height="34" viewBox="0 0 34 34" fill="none" xmlns="http://www.w3.org/2000/svg">
<path fill-rule="evenodd" clip-rule="evenodd" d="M22.8517 16.9977C22.8517 16.716 22.7398 16.4458 22.5406 16.2465C22.3413 16.0473 22.0711 15.9354 21.7894 15.9354H6.24636L9.02407 13.5557C9.1301 13.4649 9.21721 13.3541 9.28043 13.2297C9.34365 13.1053 9.38174 12.9696 9.39253 12.8304C9.40331 12.6913 9.38658 12.5513 9.34329 12.4187C9.3 12.286 9.231 12.1631 9.14023 12.0571C9.04945 11.951 8.93868 11.8639 8.81424 11.8007C8.6898 11.7375 8.55413 11.6994 8.41496 11.6886C8.2758 11.6778 8.13588 11.6946 8.00318 11.7378C7.87049 11.7811 7.74762 11.8501 7.64159 11.9409L2.68392 16.1903C2.56729 16.2901 2.47366 16.4139 2.40946 16.5533C2.34526 16.6926 2.31201 16.8443 2.31201 16.9977C2.31201 17.1512 2.34526 17.3028 2.40946 17.4422C2.47366 17.5816 2.56729 17.7054 2.68392 17.8051L7.64159 22.0546C7.85573 22.2379 8.13392 22.3286 8.41496 22.3069C8.69601 22.2851 8.9569 22.1525 9.14023 21.9384C9.32355 21.7243 9.41431 21.4461 9.39253 21.165C9.37074 20.884 9.23821 20.6231 9.02407 20.4398L6.24778 18.0601H21.7894C22.0711 18.0601 22.3413 17.9482 22.5406 17.7489C22.7398 17.5497 22.8517 17.2795 22.8517 16.9977Z" fill="#0C8CE9"/>
<path d="M13.2905 11.3318C13.2905 12.3262 13.2905 12.8234 13.5299 13.1817C13.633 13.3358 13.7654 13.4682 13.9194 13.5713C14.2778 13.8107 14.775 13.8107 15.7694 13.8107H21.7894C22.6347 13.8107 23.4453 14.1464 24.043 14.7441C24.6407 15.3418 24.9765 16.1525 24.9765 16.9977C24.9765 17.843 24.6407 18.6536 24.043 19.2513C23.4453 19.849 22.6347 20.1848 21.7894 20.1848H15.7694C14.775 20.1848 14.2778 20.1848 13.9194 20.4228C13.7652 20.5263 13.6329 20.6591 13.5299 20.8137C13.2905 21.1721 13.2905 21.6693 13.2905 22.6636C13.2905 26.6694 13.2905 28.6738 14.5356 29.9174C15.7793 31.1625 17.7822 31.1625 21.788 31.1625H23.2045C27.2131 31.1625 29.2146 31.1625 30.4597 29.9174C31.7047 28.6738 31.7047 26.6694 31.7047 22.6636V11.3318C31.7047 7.32602 31.7047 5.32171 30.4597 4.07804C29.2146 2.83437 27.2117 2.83296 23.2059 2.83296H21.7894C17.7822 2.83296 15.7793 2.83296 14.5356 4.07804C13.2905 5.32171 13.2905 7.32602 13.2905 11.3318Z" fill="#0C8CE9"/>
</svg>
