<svg width="36" height="36" viewBox="0 0 36 36" fill="none" xmlns="http://www.w3.org/2000/svg">
<path fill-rule="evenodd" clip-rule="evenodd" d="M31.308 31.5431H26.2007C26.2007 19.711 16.4629 10.0856 4.49268 10.0856V5.03711C19.2785 5.03711 31.308 16.9279 31.308 31.5431ZM4.49268 27.7564C4.49268 25.6653 6.2079 23.9699 8.32344 23.9699C10.439 23.9699 12.1542 25.6653 12.1542 27.7564C12.1542 29.8476 10.439 31.543 8.32344 31.543C6.2079 31.543 4.49268 29.8476 4.49268 27.7564ZM17.2625 31.5435H22.3699C22.3699 21.7997 14.3502 13.8726 4.49268 13.8726V18.922C11.5336 18.922 17.2625 24.5838 17.2625 31.5435Z" fill="white"/>
</svg>
