<svg width="72" height="72" viewBox="0 0 72 72" fill="none" xmlns="http://www.w3.org/2000/svg">
<path d="M41.25 6C39.18 6 37.5 7.68 37.5 9.75V17.25C37.5 19.32 39.18 21 41.25 21H53.25C55.32 21 57 19.32 57 17.25V9.75C57 7.68 55.32 6 53.25 6H41.25ZM49.5 27.75C49.5 27.1533 49.2629 26.581 48.841 26.159C48.419 25.7371 47.8467 25.5 47.25 25.5C46.6533 25.5 46.081 25.7371 45.659 26.159C45.2371 26.581 45 27.1533 45 27.75V47.82L41.34 44.16C41.134 43.9389 40.8856 43.7616 40.6096 43.6387C40.3336 43.5157 40.0357 43.4496 39.7336 43.4442C39.4315 43.4389 39.1314 43.4945 38.8512 43.6076C38.571 43.7208 38.3165 43.8892 38.1029 44.1029C37.8892 44.3165 37.7208 44.571 37.6076 44.8512C37.4945 45.1314 37.4389 45.4315 37.4442 45.7336C37.4496 46.0357 37.5157 46.3336 37.6387 46.6096C37.7616 46.8856 37.9389 47.134 38.16 47.34L45.66 54.84C46.0819 55.2614 46.6537 55.498 47.25 55.498C47.8463 55.498 48.4181 55.2614 48.84 54.84L56.34 47.34C56.5611 47.134 56.7384 46.8856 56.8613 46.6096C56.9843 46.3336 57.0504 46.0357 57.0558 45.7336C57.0611 45.4315 57.0055 45.1314 56.8924 44.8512C56.7792 44.571 56.6108 44.3165 56.3971 44.1029C56.1835 43.8892 55.929 43.7208 55.6488 43.6076C55.3686 43.4945 55.0685 43.4389 54.7664 43.4442C54.4643 43.4496 54.1664 43.5157 53.8904 43.6387C53.6144 43.7616 53.366 43.9389 53.16 44.16L49.5 47.82V27.75ZM18.75 40.5C16.68 40.5 15 42.18 15 44.25V51.75C15 53.82 16.68 55.5 18.75 55.5H30.75C32.82 55.5 34.5 53.82 34.5 51.75V44.25C34.5 42.18 32.82 40.5 30.75 40.5H18.75ZM10.5 50.25C10.5 49.6533 10.2629 49.081 9.84099 48.659C9.41903 48.2371 8.84674 48 8.25 48C7.65326 48 7.08097 48.2371 6.65901 48.659C6.23705 49.081 6 49.6533 6 50.25V56.25C6 58.438 6.86919 60.5365 8.41637 62.0836C9.96354 63.6308 12.062 64.5 14.25 64.5H57.75C59.938 64.5 62.0365 63.6308 63.5836 62.0836C65.1308 60.5365 66 58.438 66 56.25V50.25C66 49.6533 65.7629 49.081 65.341 48.659C64.919 48.2371 64.3467 48 63.75 48C63.1533 48 62.581 48.2371 62.159 48.659C61.7371 49.081 61.5 49.6533 61.5 50.25V56.25C61.5 58.32 59.82 60 57.75 60H14.25C12.18 60 10.5 58.32 10.5 56.25V50.25Z" fill="white"/>
</svg>
