<svg width="60" height="60" viewBox="0 0 60 60" fill="none" xmlns="http://www.w3.org/2000/svg">
<path d="M10 52.5C9.29168 52.5 8.69834 52.26 8.22001 51.78C7.74168 51.3 7.50168 50.7067 7.50001 50C7.49834 49.2933 7.73834 48.7 8.22001 48.22C8.70168 47.74 9.29501 47.5 10 47.5H12.5V10C12.5 9.29167 12.74 8.69833 13.22 8.22C13.7 7.74167 14.2933 7.50167 15 7.5H32.5C33.2083 7.5 33.8025 7.74 34.2825 8.22C34.7625 8.7 35.0017 9.29333 35 10H45C45.7083 10 46.3025 10.24 46.7825 10.72C47.2625 11.2 47.5017 11.7933 47.5 12.5V47.5H50C50.7083 47.5 51.3025 47.74 51.7825 48.22C52.2625 48.7 52.5017 49.2933 52.5 50C52.4983 50.7067 52.2583 51.3008 51.78 51.7825C51.3017 52.2642 50.7083 52.5033 50 52.5H45C44.2917 52.5 43.6983 52.26 43.22 51.78C42.7417 51.3 42.5017 50.7067 42.5 50V15H35V50C35 50.7083 34.76 51.3025 34.28 51.7825C33.8 52.2625 33.2067 52.5017 32.5 52.5H10ZM30 30C30 29.2917 29.76 28.6983 29.28 28.22C28.8 27.7417 28.2067 27.5017 27.5 27.5C26.7933 27.4983 26.2 27.7383 25.72 28.22C25.24 28.7017 25 29.295 25 30C25 30.705 25.24 31.2992 25.72 31.7825C26.2 32.2658 26.7933 32.505 27.5 32.5C28.2067 32.495 28.8008 32.255 29.2825 31.78C29.7642 31.305 30.0033 30.7117 30 30Z" fill="white"/>
</svg>
