<svg width="34" height="34" viewBox="0 0 34 34" fill="none" xmlns="http://www.w3.org/2000/svg">
<path fill-rule="evenodd" clip-rule="evenodd" d="M22.8437 17C22.8437 16.7182 22.7318 16.448 22.5325 16.2487C22.3333 16.0494 22.063 15.9375 21.7812 15.9375H6.23614L9.01423 13.5575C9.12027 13.4667 9.20739 13.3559 9.27062 13.2315C9.33385 13.107 9.37194 12.9713 9.38273 12.8321C9.39352 12.693 9.37678 12.553 9.33349 12.4203C9.29019 12.2876 9.22118 12.1647 9.13039 12.0587C9.03961 11.9526 8.92882 11.8655 8.80436 11.8023C8.67991 11.739 8.54421 11.701 8.40504 11.6902C8.26586 11.6794 8.12591 11.6961 7.9932 11.7394C7.86049 11.7827 7.7376 11.8517 7.63156 11.9425L2.67323 16.1925C2.55659 16.2922 2.46294 16.4161 2.39873 16.5555C2.33452 16.6949 2.30127 16.8465 2.30127 17C2.30127 17.1535 2.33452 17.3051 2.39873 17.4445C2.46294 17.5839 2.55659 17.7078 2.67323 17.8075L7.63156 22.0575C7.84572 22.2409 8.12395 22.3316 8.40504 22.3098C8.68612 22.288 8.94704 22.1555 9.13039 21.9413C9.31375 21.7272 9.40451 21.4489 9.38273 21.1679C9.36094 20.8868 9.22839 20.6259 9.01423 20.4425L6.23756 18.0625H21.7812C22.063 18.0625 22.3333 17.9506 22.5325 17.7513C22.7318 17.552 22.8437 17.2818 22.8437 17Z" fill="#B1B1B1"/>
<path d="M13.2813 11.3333C13.2813 12.3278 13.2812 12.8251 13.5207 13.1835C13.6238 13.3376 13.7561 13.47 13.9103 13.5731C14.2687 13.8125 14.7659 13.8125 15.7604 13.8125H21.7812C22.6266 13.8125 23.4374 14.1483 24.0352 14.7461C24.6329 15.3439 24.9688 16.1546 24.9688 17C24.9688 17.8454 24.6329 18.6561 24.0352 19.2539C23.4374 19.8517 22.6266 20.1875 21.7812 20.1875H15.7604C14.7659 20.1875 14.2687 20.1875 13.9103 20.4255C13.756 20.529 13.6236 20.6619 13.5207 20.8165C13.2812 21.1749 13.2813 21.6722 13.2813 22.6667C13.2813 26.673 13.2812 28.6776 14.5265 29.9214C15.7703 31.1667 17.7735 31.1667 21.7798 31.1667H23.1965C27.2057 31.1667 29.2074 31.1667 30.4527 29.9214C31.6979 28.6776 31.6979 26.673 31.6979 22.6667V11.3333C31.6979 7.327 31.6979 5.32242 30.4527 4.07858C29.2074 2.83475 27.2042 2.83333 23.1979 2.83333H21.7812C17.7735 2.83333 15.7703 2.83333 14.5265 4.07858C13.2812 5.32242 13.2813 7.327 13.2813 11.3333Z" fill="#B1B1B1"/>
</svg>
