<svg width="34" height="34" viewBox="0 0 34 34" fill="none" xmlns="http://www.w3.org/2000/svg">
<path d="M7.32495 31.1838C7.32583 31.9284 7.62196 32.6423 8.14837 33.1689C8.67478 33.6955 9.3885 33.9917 10.133 33.9926H24.173C24.9174 33.9917 25.6311 33.6955 26.1576 33.1689C26.684 32.6423 26.9801 31.9284 26.981 31.1838V29.9549H7.32495V31.1838Z" fill="#B1B1B1"/>
<path d="M26.981 3.09559C26.9801 2.35091 26.684 1.63699 26.1576 1.11043C25.6311 0.583868 24.9174 0.287656 24.173 0.286774L10.133 0.286774C9.3885 0.287656 8.67478 0.583868 8.14837 1.11043C7.62196 1.63699 7.32583 2.35091 7.32495 3.09559V4.5H26.981V3.09559Z" fill="#B1B1B1"/>
<path d="M33.61 9.32063L29.398 4.93185L27.3724 6.87696L29.1346 8.71322H26.9812V11.522H29.286L27.4138 13.3169L29.3566 15.3448L33.5686 11.3072C33.7018 11.1795 33.8085 11.0268 33.8827 10.8578C33.9569 10.6889 33.997 10.507 34.0009 10.3225C34.0047 10.138 33.9722 9.95455 33.9051 9.78265C33.838 9.61075 33.7378 9.45375 33.61 9.32063Z" fill="#B1B1B1"/>
<path d="M22.769 8.7132H26.981V5.90439H7.32495V22.7573H11.537V25.5661H7.32495V28.3749H26.981V11.522H22.769V8.7132ZM21.365 14.3308H16.451C16.2648 14.3308 16.0862 14.4048 15.9546 14.5365C15.8229 14.6682 15.749 14.8468 15.749 15.033C15.749 15.2193 15.8229 15.3979 15.9546 15.5296C16.0862 15.6613 16.2648 15.7352 16.451 15.7352H17.855C18.7254 15.7344 19.5651 16.057 20.2111 16.6406C20.8571 17.2242 21.2633 18.0271 21.3507 18.8934C21.4382 19.7597 21.2008 20.6276 20.6845 21.3286C20.1683 22.0297 19.41 22.5138 18.557 22.6871V24.1617H15.749V22.7573H12.941V19.9485H17.855C18.0411 19.9485 18.2197 19.8745 18.3514 19.7428C18.483 19.6111 18.557 19.4325 18.557 19.2463C18.557 19.06 18.483 18.8814 18.3514 18.7497C18.2197 18.618 18.0411 18.5441 17.855 18.5441H16.451C15.5805 18.5449 14.7408 18.2222 14.0948 17.6387C13.4488 17.0551 13.0427 16.2522 12.9552 15.3859C12.8677 14.5196 13.1052 13.6517 13.6214 12.9507C14.1377 12.2496 14.8959 11.7655 15.749 11.5922V10.1176H18.557V11.522H21.365V14.3308Z" fill="#B1B1B1"/>
<path d="M5.0203 22.7573L6.89253 20.9624L4.94975 18.9345L0.73774 22.9721C0.604551 23.0998 0.497822 23.2525 0.423653 23.4215C0.349483 23.5904 0.309328 23.7723 0.305481 23.9568C0.301635 24.1413 0.334173 24.3248 0.401235 24.4967C0.468298 24.6686 0.568571 24.8256 0.696322 24.9587L4.90833 29.3475L6.93395 27.4024L5.17175 25.5661H7.32514V22.7573H5.0203Z" fill="#B1B1B1"/>
</svg>
