<svg width="185" height="185" viewBox="0 0 185 185" fill="none" xmlns="http://www.w3.org/2000/svg">
<g opacity="0.4">
<path d="M92.5 150.312C124.429 150.312 150.312 124.429 150.312 92.5C150.312 60.571 124.429 34.6875 92.5 34.6875C60.571 34.6875 34.6875 60.571 34.6875 92.5C34.6875 124.429 60.571 150.312 92.5 150.312Z" stroke="#0C8CE9" stroke-opacity="0.2" stroke-width="11.5625" stroke-linecap="round" stroke-linejoin="round"/>
<path d="M92.5 115.625C105.272 115.625 115.625 105.272 115.625 92.5C115.625 79.7284 105.272 69.375 92.5 69.375C79.7284 69.375 69.375 79.7284 69.375 92.5C69.375 105.272 79.7284 115.625 92.5 115.625Z" stroke="#0C8CE9" stroke-opacity="0.2" stroke-width="11.5625" stroke-linecap="round" stroke-linejoin="round"/>
<path d="M92.5 30.8337V15.417" stroke="#0C8CE9" stroke-opacity="0.2" stroke-width="11.5625" stroke-linecap="round" stroke-linejoin="round"/>
<path d="M30.8371 92.5H15.4204" stroke="#0C8CE9" stroke-opacity="0.2" stroke-width="11.5625" stroke-linecap="round" stroke-linejoin="round"/>
<path d="M92.5 154.167V169.584" stroke="#0C8CE9" stroke-opacity="0.2" stroke-width="11.5625" stroke-linecap="round" stroke-linejoin="round"/>
<path d="M154.17 92.5H169.587" stroke="#0C8CE9" stroke-opacity="0.2" stroke-width="11.5625" stroke-linecap="round" stroke-linejoin="round"/>
</g>
</svg>
