<svg width="28" height="28" viewBox="0 0 28 28" fill="none" xmlns="http://www.w3.org/2000/svg">
<path fill-rule="evenodd" clip-rule="evenodd" d="M6.62953 1.36024C11.5282 0.817867 16.4717 0.817867 21.3704 1.36024C24.0826 1.66424 26.2708 3.80016 26.589 6.52191C27.1695 11.4904 27.1695 16.5096 26.589 21.4781C26.2708 24.1998 24.0826 26.3357 21.3704 26.6397C16.4717 27.1821 11.5282 27.1821 6.62953 26.6397C3.91727 26.3357 1.72911 24.1998 1.41086 21.4781C0.830495 16.5101 0.830495 11.4915 1.41086 6.52349C1.57183 5.2012 2.17463 3.97202 3.12154 3.03516C4.06846 2.0983 5.30401 1.50867 6.62794 1.36183M13.9999 6.09441C14.3149 6.09441 14.6169 6.21952 14.8396 6.44222C15.0623 6.66492 15.1874 6.96696 15.1874 7.28191V12.8125H20.718C21.033 12.8125 21.335 12.9376 21.5577 13.1603C21.7804 13.383 21.9055 13.685 21.9055 14C21.9055 14.3149 21.7804 14.617 21.5577 14.8397C21.335 15.0624 21.033 15.1875 20.718 15.1875H15.1874V20.7181C15.1874 21.033 15.0623 21.3351 14.8396 21.5578C14.6169 21.7805 14.3149 21.9056 13.9999 21.9056C13.685 21.9056 13.383 21.7805 13.1603 21.5578C12.9376 21.3351 12.8124 21.033 12.8124 20.7181V15.1875H7.28186C6.96691 15.1875 6.66487 15.0624 6.44217 14.8397C6.21947 14.617 6.09436 14.3149 6.09436 14C6.09436 13.685 6.21947 13.383 6.44217 13.1603C6.66487 12.9376 6.96691 12.8125 7.28186 12.8125H12.8124V7.28191C12.8124 6.96696 12.9376 6.66492 13.1603 6.44222C13.383 6.21952 13.685 6.09441 13.9999 6.09441Z" fill="#B1B1B1"/>
</svg>
