<svg width="34" height="35" viewBox="0 0 34 35" fill="none" xmlns="http://www.w3.org/2000/svg">
<g clip-path="url(#clip0_215_977)">
<path d="M16.9129 17.1579C19.1428 17.1579 21.0738 16.3579 22.6515 14.7795C24.2292 13.2014 25.0289 11.2704 25.0289 9.03958C25.0289 6.80954 24.2292 4.87832 22.6512 3.29965C21.0732 1.72176 19.1426 0.921753 16.9129 0.921753C14.6827 0.921753 12.7523 1.72176 11.1746 3.29991C9.59691 4.87806 8.79688 6.80929 8.79688 9.03958C8.79688 11.2704 9.59691 13.2016 11.1749 14.7798C12.7528 16.3577 14.6835 17.1579 16.9129 17.1579Z" fill="#B1B1B1"/>
<path d="M31.1137 26.8397C31.0682 26.1829 30.9762 25.4665 30.8407 24.71C30.704 23.9478 30.5279 23.2272 30.317 22.5686C30.0993 21.888 29.8031 21.2158 29.4371 20.5716C29.0571 19.903 28.6108 19.3208 28.11 18.8417C27.5863 18.3405 26.9452 17.9376 26.2038 17.6436C25.4649 17.3513 24.6461 17.2031 23.7702 17.2031C23.4263 17.2031 23.0936 17.3443 22.4512 17.7627C22.0558 18.0206 21.5933 18.3189 21.0771 18.6489C20.6357 18.9302 20.0377 19.1938 19.2991 19.4324C18.5785 19.6656 17.8468 19.7839 17.1247 19.7839C16.4026 19.7839 15.6712 19.6656 14.9498 19.4324C14.212 19.194 13.614 18.9304 13.1731 18.6491C12.6618 18.3223 12.199 18.024 11.7977 17.7624C11.1561 17.3441 10.8232 17.2029 10.4792 17.2029C9.60305 17.2029 8.7845 17.3513 8.04591 17.6439C7.30501 17.9373 6.66359 18.3403 6.1394 18.842C5.63887 19.3213 5.19232 19.9033 4.81287 20.5716C4.44704 21.2158 4.15089 21.8877 3.93288 22.5689C3.72233 23.2275 3.54623 23.9478 3.40947 24.71C3.27398 25.4655 3.18195 26.1822 3.13645 26.8405C3.09171 27.4854 3.06909 28.1548 3.06909 28.8309C3.06909 30.5903 3.62824 32.0147 4.73086 33.0651C5.81985 34.1017 7.26079 34.6276 9.01305 34.6276H25.2379C26.9902 34.6276 28.4306 34.102 29.5198 33.0651C30.6227 32.0154 31.1819 30.5908 31.1819 28.8306C31.1816 28.1515 31.1587 27.4816 31.1137 26.8397Z" fill="#B1B1B1"/>
</g>
<defs>
<clipPath id="clip0_215_977">
<rect width="33.696" height="33.7058" fill="white" transform="translate(0.305176 0.921753)"/>
</clipPath>
</defs>
</svg>
