<svg width="56" height="56" viewBox="0 0 56 56" fill="none" xmlns="http://www.w3.org/2000/svg">
<path d="M28 5.25C28 4.78587 28.1844 4.34075 28.5126 4.01256C28.8408 3.68437 29.2859 3.5 29.75 3.5C32.7376 3.5 35.6959 4.08845 38.4561 5.23174C41.2162 6.37504 43.7242 8.05079 45.8367 10.1633C47.9492 12.2759 49.625 14.7838 50.7683 17.544C51.9116 20.3041 52.5 23.2624 52.5 26.25C52.5 26.7141 52.3157 27.1593 51.9875 27.4874C51.6593 27.8156 51.2142 28 50.75 28H29.75C29.2859 28 28.8408 27.8156 28.5126 27.4874C28.1844 27.1593 28 26.7141 28 26.25V5.25ZM24.5 12.327C24.5 12.0839 24.4494 11.8435 24.3514 11.621C24.2533 11.3986 24.11 11.199 23.9305 11.035C23.751 10.871 23.5394 10.7462 23.309 10.6686C23.0787 10.5909 22.8346 10.5621 22.5925 10.584C18.6181 10.9464 14.8292 12.4338 11.6696 14.872C8.51011 17.3102 6.11075 20.5982 4.75263 24.3509C3.39451 28.1037 3.13386 32.1657 4.00122 36.0612C4.86857 39.9568 6.82802 43.5245 9.65003 46.3465C12.472 49.1685 16.0398 51.128 19.9353 51.9953C23.8308 52.8627 27.8929 52.602 31.6456 51.2439C35.3983 49.8858 38.6864 47.4864 41.1246 44.3269C43.5628 41.1673 45.0502 37.3784 45.4125 33.404C45.4339 33.1625 45.4048 32.9191 45.3271 32.6894C45.2494 32.4597 45.1249 32.2487 44.9613 32.0696C44.7978 31.8906 44.5988 31.7475 44.377 31.6495C44.1552 31.5514 43.9155 31.5005 43.673 31.5H24.5V12.327Z" fill="#0C8CE9"/>
</svg>
