<svg width="37" height="36" viewBox="0 0 37 36" fill="none" xmlns="http://www.w3.org/2000/svg">
<path fill-rule="evenodd" clip-rule="evenodd" d="M30.9401 10.8841C31.7437 11.71 32.006 13.5855 32.006 13.5855C32.006 13.5855 32.2741 15.7884 32.2741 17.9904V20.0556C32.2741 22.2585 32.006 24.4605 32.006 24.4605C32.006 24.4605 31.7437 26.336 30.9401 27.1619C30.0213 28.1389 29.0025 28.2398 28.4267 28.2969C28.3633 28.3031 28.3054 28.3089 28.2535 28.3152C24.501 28.5908 18.8663 28.5993 18.8663 28.5993C18.8663 28.5993 11.8943 28.5346 9.749 28.3254C9.64736 28.3061 9.52415 28.2911 9.38462 28.2742C8.70509 28.1914 7.63853 28.0616 6.79174 27.1619C5.98811 26.336 5.72665 24.4605 5.72665 24.4605C5.72665 24.4605 5.4585 22.2585 5.4585 20.0556V17.9904C5.4585 15.7884 5.72665 13.5855 5.72665 13.5855C5.72665 13.5855 5.98811 11.71 6.79174 10.8841C7.71257 9.90575 8.7323 9.8059 9.3082 9.74951C9.37063 9.74339 9.42785 9.73779 9.47917 9.73163C13.2317 9.45605 18.8605 9.45605 18.8605 9.45605H18.8722C18.8722 9.45605 24.501 9.45605 28.2535 9.73163C28.3048 9.7378 28.362 9.74341 28.4245 9.74953C29 9.80593 30.0201 9.90591 30.9401 10.8841ZM16.0982 14.9108L16.099 22.5581L23.3434 18.7477L16.0982 14.9108Z" fill="white"/>
</svg>
