<svg width="34" height="34" viewBox="0 0 34 34" fill="none" xmlns="http://www.w3.org/2000/svg">
<path d="M33.0922 14.6604C33.0915 14.6596 33.0907 14.6588 33.0899 14.6581L19.3446 0.909299C18.7587 0.322986 17.9798 0 17.1512 0C16.3226 0 15.5437 0.322729 14.9575 0.909042L1.21941 14.6509C1.21479 14.6555 1.21016 14.6604 1.20553 14.665C0.00239551 15.8754 0.00445214 17.8393 1.21144 19.0467C1.76288 19.5985 2.49119 19.9182 3.26989 19.9516C3.30151 19.9547 3.33339 19.9562 3.36552 19.9562H3.91336V30.0745C3.91336 32.0767 5.54196 33.7058 7.54411 33.7058H12.9217C13.4667 33.7058 13.9089 33.2637 13.9089 32.7183V24.7856C13.9089 23.8719 14.6519 23.1287 15.5653 23.1287H18.7371C19.6505 23.1287 20.3935 23.8719 20.3935 24.7856V32.7183C20.3935 33.2637 20.8354 33.7058 21.3807 33.7058H26.7583C28.7604 33.7058 30.389 32.0767 30.389 30.0745V19.9562H30.897C31.7253 19.9562 32.5043 19.6335 33.0907 19.0472C34.299 17.8378 34.2995 15.8706 33.0922 14.6604Z" fill="#0C8CE9"/>
</svg>
