<svg width="37" height="36" viewBox="0 0 37 36" fill="none" xmlns="http://www.w3.org/2000/svg">
<path d="M18.3915 5.03809C10.9871 5.03809 4.98291 10.9714 4.98291 18.2919C4.98291 23.7171 8.28461 28.3803 13.0101 30.4297C12.9723 29.5055 13.0038 28.3927 13.2419 27.3859C13.5005 26.3105 14.9668 20.1652 14.9668 20.1652C14.9668 20.1652 14.5395 19.3189 14.5395 18.0674C14.5395 16.1037 15.6921 14.6371 17.1254 14.6371C18.3442 14.6371 18.9339 15.5426 18.9339 16.6274C18.9339 17.8383 18.1519 19.6509 17.7498 21.3295C17.4139 22.7368 18.4625 23.8823 19.8658 23.8823C22.4059 23.8823 24.1167 20.6577 24.1167 16.8362C24.1167 13.9326 22.1379 11.7585 18.5382 11.7585C14.4717 11.7585 11.9379 14.7556 11.9379 18.1033C11.9379 19.2597 12.2816 20.0733 12.8209 20.7029C13.07 20.9944 13.1031 21.1097 13.0133 21.4432C12.9502 21.6848 12.802 22.2739 12.7405 22.5061C12.6506 22.8412 12.3763 22.9628 12.0704 22.8381C10.1956 22.0822 9.32368 20.0546 9.32368 17.7744C9.32368 14.0106 12.5355 9.49394 18.9055 9.49394C24.0252 9.49394 27.3947 13.1581 27.3947 17.0871C27.3947 22.2864 24.4714 26.1703 20.159 26.1703C18.7132 26.1703 17.3509 25.3972 16.8842 24.5198C16.8842 24.5198 16.1052 27.5729 15.9413 28.1621C15.6574 29.1829 15.1009 30.2053 14.5916 31.0002C15.7978 31.3524 17.0718 31.5441 18.3915 31.5441C25.7959 31.5441 31.7986 25.6108 31.7986 18.2919C31.7986 10.9714 25.7959 5.03809 18.3915 5.03809Z" fill="white"/>
</svg>
