<svg width="37" height="36" viewBox="0 0 37 36" fill="none" xmlns="http://www.w3.org/2000/svg">
<path fill-rule="evenodd" clip-rule="evenodd" d="M18.3742 5.03809C14.7328 5.03809 14.2762 5.05334 12.8461 5.11784C11.419 5.18218 10.4443 5.40624 9.5915 5.73388C8.70981 6.07252 7.96209 6.52568 7.21666 7.26245C6.47128 7.99928 6.01282 8.73837 5.67023 9.60987C5.33876 10.4529 5.11208 11.4163 5.04699 12.8269C4.98174 14.2405 4.96631 14.6918 4.96631 18.2911C4.96631 21.8904 4.98174 22.3417 5.04699 23.7553C5.11208 25.1659 5.33876 26.1293 5.67023 26.9723C6.01282 27.8438 6.47128 28.5829 7.21666 29.3197C7.96209 30.0565 8.70981 30.5097 9.5915 30.8484C10.4443 31.1759 11.419 31.4 12.8461 31.4643C14.2762 31.5288 14.7328 31.5441 18.3742 31.5441C22.0155 31.5441 22.4721 31.5288 23.9022 31.4643C25.3293 31.4 26.3039 31.1759 27.1568 30.8484C28.0384 30.5097 28.7862 30.0565 29.5316 29.3197C30.277 28.5829 30.7354 27.8438 31.0781 26.9723C31.4095 26.1293 31.6362 25.1659 31.7013 23.7553C31.7665 22.3417 31.7819 21.8904 31.7819 18.2911C31.7819 14.6918 31.7665 14.2405 31.7013 12.8269C31.6362 11.4163 31.4095 10.4529 31.0781 9.60987C30.7354 8.73837 30.277 7.99928 29.5316 7.26245C28.7862 6.52568 28.0384 6.07252 27.1568 5.73388C26.3039 5.40624 25.3293 5.18218 23.9022 5.11784C22.4721 5.05334 22.0155 5.03809 18.3742 5.03809ZM18.3742 7.42602C21.9542 7.42602 22.3782 7.43954 23.7921 7.5033C25.0993 7.56222 25.8092 7.77812 26.2817 7.95962C26.9075 8.20004 27.3542 8.48723 27.8233 8.95102C28.2925 9.41475 28.5831 9.85624 28.8263 10.4749C29.0099 10.9419 29.2283 11.6436 29.288 12.9357C29.3525 14.3332 29.3661 14.7524 29.3661 18.2911C29.3661 21.8298 29.3525 22.249 29.288 23.6465C29.2283 24.9386 29.0099 25.6403 28.8263 26.1073C28.5831 26.726 28.2925 27.1674 27.8233 27.6312C27.3542 28.095 26.9075 28.3822 26.2817 28.6226C25.8092 28.8041 25.0993 29.02 23.7921 29.0789C22.3785 29.1427 21.9544 29.1562 18.3742 29.1562C14.7938 29.1562 14.3699 29.1427 12.9562 29.0789C11.649 29.02 10.939 28.8041 10.4666 28.6226C9.84075 28.3822 9.3941 28.095 8.92495 27.6312C8.45579 27.1674 8.1652 26.726 7.92197 26.1073C7.73835 25.6403 7.51993 24.9386 7.46032 23.6465C7.39581 22.249 7.38214 21.8298 7.38214 18.2911C7.38214 14.7524 7.39581 14.3332 7.46032 12.9357C7.51993 11.6436 7.73835 10.9419 7.92197 10.4749C8.1652 9.85624 8.45574 9.41475 8.92495 8.95102C9.3941 8.48723 9.84075 8.20004 10.4666 7.95962C10.939 7.77812 11.649 7.56222 12.9562 7.5033C14.37 7.43954 14.7941 7.42602 18.3742 7.42602ZM11.4891 18.2912C11.4891 14.5325 14.5717 11.4856 18.3743 11.4856C22.1768 11.4856 25.2593 14.5325 25.2593 18.2912C25.2593 22.0498 22.1768 25.0968 18.3743 25.0968C14.5717 25.0968 11.4891 22.0498 11.4891 18.2912ZM18.3743 22.7089C15.9059 22.7089 13.905 20.731 13.905 18.2912C13.905 15.8514 15.9059 13.8735 18.3743 13.8735C20.8426 13.8735 22.8435 15.8514 22.8435 18.2912C22.8435 20.731 20.8426 22.7089 18.3743 22.7089ZM25.5323 12.8068C26.4209 12.8068 27.1412 12.0948 27.1412 11.2164C27.1412 10.3381 26.4209 9.62604 25.5323 9.62604C24.6437 9.62604 23.9234 10.3381 23.9234 11.2164C23.9234 12.0948 24.6437 12.8068 25.5323 12.8068Z" fill="white"/>
</svg>
