<svg width="37" height="36" viewBox="0 0 37 36" fill="none" xmlns="http://www.w3.org/2000/svg">
<path fill-rule="evenodd" clip-rule="evenodd" d="M11.4191 4.79492H26.3167C27.136 4.79492 27.8064 5.45757 27.8064 6.26748V9.21259C27.8064 10.0225 27.136 10.6851 26.3167 10.6851H11.4191C10.5997 10.6851 9.92933 10.0225 9.92933 9.21259V6.26748C9.92933 5.45757 10.5997 4.79492 11.4191 4.79492ZM8.43949 12.1573H29.2961C31.7691 12.1573 33.7654 14.1306 33.7654 16.575V22.4652C33.7654 24.085 32.4246 25.4103 30.7859 25.4103H27.8063V28.3554C27.8063 29.9753 26.4656 31.3006 24.8268 31.3006H12.9088C11.27 31.3006 9.92925 29.9753 9.92925 28.3554V25.4103H6.94973C5.311 25.4103 3.97021 24.085 3.97021 22.4652V16.575C3.97021 14.1306 5.96649 12.1573 8.43949 12.1573ZM14.3986 28.3556H23.3372C24.1566 28.3556 24.827 27.6929 24.827 26.883V20.9928H12.9089V26.883C12.9089 27.6929 13.5793 28.3556 14.3986 28.3556ZM29.2955 18.0476C28.4761 18.0476 27.8057 17.3849 27.8057 16.575C27.8057 15.7651 28.4761 15.1025 29.2955 15.1025C30.1148 15.1025 30.7852 15.7651 30.7852 16.575C30.7852 17.3849 30.1148 18.0476 29.2955 18.0476Z" fill="white"/>
</svg>
