<svg width="34" height="35" viewBox="0 0 34 35" fill="none" xmlns="http://www.w3.org/2000/svg">
<path d="M5.58972 14.6489H1.83727C0.991285 14.6489 0.305176 15.3352 0.305176 16.1814V33.0343C0.305176 33.8798 0.991285 34.5661 1.83727 34.5661H5.58972C6.43571 34.5661 7.1211 33.8798 7.1211 33.0343V16.1814C7.1211 15.3352 6.43571 14.6489 5.58972 14.6489Z" fill="#B1B1B1"/>
<path d="M14.5499 19.2443H10.7975C9.95077 19.2443 9.26538 19.9306 9.26538 20.7769V33.0328C9.26538 33.8798 9.95077 34.5654 10.7975 34.5654H14.5499C15.3959 34.5654 16.0813 33.8791 16.0813 33.0328V20.7769C16.0813 19.9306 15.3959 19.2443 14.5499 19.2443Z" fill="#B1B1B1"/>
<path d="M23.5087 19.2443H19.7562C18.9102 19.2443 18.2249 19.9306 18.2249 20.7769V33.0328C18.2249 33.8798 18.9102 34.5654 19.7562 34.5654H23.5087C24.3554 34.5654 25.0408 33.8791 25.0408 33.0328V20.7769C25.0408 19.9306 24.3554 19.2443 23.5087 19.2443Z" fill="#B1B1B1"/>
<path d="M32.4691 14.6489H28.7167C27.8707 14.6489 27.1853 15.3352 27.1853 16.1814V33.0343C27.1853 33.8805 27.8707 34.5661 28.7167 34.5661H32.4691C33.3151 34.5661 34.0012 33.8791 34.0012 33.0343V16.1814C34.0012 15.3352 33.3151 14.6489 32.4691 14.6489Z" fill="#B1B1B1"/>
<path d="M17.5996 10.09V12.8481C18.4344 12.7929 19.3143 12.4013 19.3143 11.4827C19.3143 10.5346 18.3497 10.2571 17.5996 10.09Z" fill="#B1B1B1"/>
<path d="M15.2017 6.78896C15.2017 7.48603 15.7202 7.88906 16.765 8.09847V5.60352C15.8155 5.63149 15.2017 6.18943 15.2017 6.78896Z" fill="#B1B1B1"/>
<path d="M17.153 0.860336C12.508 0.860336 8.729 4.64112 8.729 9.28678C8.729 13.931 12.508 17.7118 17.153 17.7118C21.7981 17.7118 25.577 13.931 25.577 9.28678C25.577 4.64112 21.7981 0.860336 17.153 0.860336ZM17.5997 14.2702V15.1329C17.5997 15.3703 17.4176 15.607 17.1795 15.607C16.9444 15.607 16.7644 15.3703 16.7644 15.1329V14.2702C14.4107 14.2128 13.24 12.8058 13.24 11.705C13.24 11.1492 13.5762 10.8279 14.1024 10.8279C15.6625 10.8279 14.4494 12.7506 16.7644 12.8474V9.93579C14.6997 9.56073 13.4493 8.65498 13.4493 7.10881C13.4493 5.21484 15.0237 4.23809 16.7644 4.18358V3.44062C16.7644 3.20325 16.9444 2.96659 17.1795 2.96659C17.4176 2.96659 17.5997 3.20325 17.5997 3.44062V4.18358C18.6851 4.21227 20.9141 4.89355 20.9141 6.25971C20.9141 6.80259 20.5083 7.12244 20.0344 7.12244C19.1282 7.12244 19.1411 5.63293 17.5997 5.60424V8.25122C19.4379 8.64207 21.0661 9.18495 21.0661 11.3306C21.0661 13.1966 19.6738 14.1433 17.5997 14.2702Z" fill="#B1B1B1"/>
</svg>
