<svg width="165" height="30" viewBox="0 0 165 30" fill="none" xmlns="http://www.w3.org/2000/svg">
<path d="M6.388 24.248H14.452V29H0.232V3.728H6.388V24.248ZM36.3242 18.632C36.3242 19.208 36.2883 19.808 36.2163 20.432H22.2843C22.3803 21.68 22.7763 22.64 23.4723 23.312C24.1923 23.96 25.0683 24.284 26.1003 24.284C27.6363 24.284 28.7043 23.636 29.3043 22.34H35.8563C35.5203 23.66 34.9083 24.848 34.0203 25.904C33.1563 26.96 32.0643 27.788 30.7443 28.388C29.4243 28.988 27.9483 29.288 26.3163 29.288C24.3483 29.288 22.5963 28.868 21.0603 28.028C19.5243 27.188 18.3243 25.988 17.4603 24.428C16.5963 22.868 16.1643 21.044 16.1643 18.956C16.1643 16.868 16.5843 15.044 17.4243 13.484C18.2883 11.924 19.4883 10.724 21.0243 9.884C22.5603 9.044 24.3243 8.624 26.3163 8.624C28.2603 8.624 29.9883 9.032 31.5003 9.848C33.0123 10.664 34.1883 11.828 35.0283 13.34C35.8923 14.852 36.3242 16.616 36.3242 18.632ZM30.0243 17.012C30.0243 15.956 29.6643 15.116 28.9443 14.492C28.2243 13.868 27.3243 13.556 26.2443 13.556C25.2123 13.556 24.3363 13.856 23.6163 14.456C22.9203 15.056 22.4883 15.908 22.3203 17.012H30.0243ZM51.8118 8.696C54.1638 8.696 56.0358 9.464 57.4278 11C58.8438 12.512 59.5518 14.6 59.5518 17.264V29H53.4318V18.092C53.4318 16.748 53.0838 15.704 52.3878 14.96C51.6918 14.216 50.7558 13.844 49.5798 13.844C48.4038 13.844 47.4678 14.216 46.7718 14.96C46.0758 15.704 45.7278 16.748 45.7278 18.092V29H39.5718V8.912H45.7278V11.576C46.3518 10.688 47.1918 9.992 48.2478 9.488C49.3038 8.96 50.4918 8.696 51.8118 8.696ZM161.35 29.288C160.27 29.288 159.382 28.976 158.686 28.352C158.014 27.704 157.678 26.912 157.678 25.976C157.678 25.016 158.014 24.212 158.686 23.564C159.382 22.916 160.27 22.592 161.35 22.592C162.406 22.592 163.27 22.916 163.942 23.564C164.638 24.212 164.986 25.016 164.986 25.976C164.986 26.912 164.638 27.704 163.942 28.352C163.27 28.976 162.406 29.288 161.35 29.288Z" fill="#0C8CE9"/>
<path d="M82.0097 3.728V8.66H75.3137V29H69.1577V8.66H62.4617V3.728H82.0097ZM83.8752 18.92C83.8752 16.856 84.2592 15.044 85.0272 13.484C85.8192 11.924 86.8872 10.724 88.2312 9.884C89.5752 9.044 91.0752 8.624 92.7312 8.624C94.1472 8.624 95.3832 8.912 96.4392 9.488C97.5192 10.064 98.3472 10.82 98.9232 11.756V8.912H105.079V29H98.9232V26.156C98.3232 27.092 97.4832 27.848 96.4032 28.424C95.3472 29 94.1112 29.288 92.6952 29.288C91.0632 29.288 89.5752 28.868 88.2312 28.028C86.8872 27.164 85.8192 25.952 85.0272 24.392C84.2592 22.808 83.8752 20.984 83.8752 18.92ZM98.9232 18.956C98.9232 17.42 98.4912 16.208 97.6272 15.32C96.7872 14.432 95.7552 13.988 94.5312 13.988C93.3072 13.988 92.2632 14.432 91.3992 15.32C90.5592 16.184 90.1392 17.384 90.1392 18.92C90.1392 20.456 90.5592 21.68 91.3992 22.592C92.2632 23.48 93.3072 23.924 94.5312 23.924C95.7552 23.924 96.7872 23.48 97.6272 22.592C98.4912 21.704 98.9232 20.492 98.9232 18.956ZM115.689 12.26C116.409 11.156 117.309 10.292 118.389 9.668C119.469 9.02 120.669 8.696 121.989 8.696V15.212H120.297C118.761 15.212 117.609 15.548 116.841 16.22C116.073 16.868 115.689 18.02 115.689 19.676V29H109.533V8.912H115.689V12.26ZM128.027 6.824C126.947 6.824 126.059 6.512 125.363 5.888C124.691 5.24 124.355 4.448 124.355 3.512C124.355 2.552 124.691 1.76 125.363 1.136C126.059 0.487998 126.947 0.163998 128.027 0.163998C129.083 0.163998 129.947 0.487998 130.619 1.136C131.315 1.76 131.663 2.552 131.663 3.512C131.663 4.448 131.315 5.24 130.619 5.888C129.947 6.512 129.083 6.824 128.027 6.824ZM131.087 8.912V29H124.931V8.912H131.087ZM144.692 29.288C142.724 29.288 140.948 28.868 139.364 28.028C137.804 27.188 136.568 25.988 135.656 24.428C134.768 22.868 134.324 21.044 134.324 18.956C134.324 16.892 134.78 15.08 135.692 13.52C136.604 11.936 137.852 10.724 139.436 9.884C141.02 9.044 142.796 8.624 144.764 8.624C146.732 8.624 148.508 9.044 150.092 9.884C151.676 10.724 152.924 11.936 153.836 13.52C154.748 15.08 155.204 16.892 155.204 18.956C155.204 21.02 154.736 22.844 153.8 24.428C152.888 25.988 151.628 27.188 150.02 28.028C148.436 28.868 146.66 29.288 144.692 29.288ZM144.692 23.96C145.868 23.96 146.864 23.528 147.68 22.664C148.52 21.8 148.94 20.564 148.94 18.956C148.94 17.348 148.532 16.112 147.716 15.248C146.924 14.384 145.94 13.952 144.764 13.952C143.564 13.952 142.568 14.384 141.776 15.248C140.984 16.088 140.588 17.324 140.588 18.956C140.588 20.564 140.972 21.8 141.74 22.664C142.532 23.528 143.516 23.96 144.692 23.96Z" fill="#1F1F1F"/>
</svg>
