<svg width="226" height="42" viewBox="0 0 226 42" fill="none" xmlns="http://www.w3.org/2000/svg">
<path d="M8.65 34.4H19.85V41H0.1V5.9H8.65V34.4ZM50.2281 26.6C50.2281 27.4 50.1781 28.2333 50.0781 29.1H30.7281C30.8615 30.8333 31.4115 32.1667 32.3781 33.1C33.3781 34 34.5948 34.45 36.0281 34.45C38.1615 34.45 39.6448 33.55 40.4781 31.75H49.5781C49.1115 33.5833 48.2615 35.2333 47.0281 36.7C45.8281 38.1667 44.3115 39.3167 42.4781 40.15C40.6448 40.9833 38.5948 41.4 36.3281 41.4C33.5948 41.4 31.1615 40.8167 29.0281 39.65C26.8948 38.4833 25.2281 36.8167 24.0281 34.65C22.8281 32.4833 22.2281 29.95 22.2281 27.05C22.2281 24.15 22.8115 21.6167 23.9781 19.45C25.1781 17.2833 26.8448 15.6167 28.9781 14.45C31.1115 13.2833 33.5615 12.7 36.3281 12.7C39.0281 12.7 41.4281 13.2667 43.5281 14.4C45.6281 15.5333 47.2615 17.15 48.4281 19.25C49.6281 21.35 50.2281 23.8 50.2281 26.6ZM41.4781 24.35C41.4781 22.8833 40.9781 21.7167 39.9781 20.85C38.9781 19.9833 37.7281 19.55 36.2281 19.55C34.7948 19.55 33.5781 19.9667 32.5781 20.8C31.6115 21.6333 31.0115 22.8167 30.7781 24.35H41.4781ZM71.7387 12.8C75.0053 12.8 77.6053 13.8667 79.5387 16C81.5053 18.1 82.4887 21 82.4887 24.7V41H73.9887V25.85C73.9887 23.9833 73.5053 22.5333 72.5387 21.5C71.572 20.4667 70.272 19.95 68.6387 19.95C67.0053 19.95 65.7053 20.4667 64.7387 21.5C63.772 22.5333 63.2887 23.9833 63.2887 25.85V41H54.7387V13.1H63.2887V16.8C64.1553 15.5667 65.322 14.6 66.7887 13.9C68.2553 13.1667 69.9053 12.8 71.7387 12.8ZM221.887 41.288C220.807 41.288 219.919 40.976 219.223 40.352C218.551 39.704 218.215 38.912 218.215 37.976C218.215 37.016 218.551 36.212 219.223 35.564C219.919 34.916 220.807 34.592 221.887 34.592C222.943 34.592 223.807 34.916 224.479 35.564C225.175 36.212 225.523 37.016 225.523 37.976C225.523 38.912 225.175 39.704 224.479 40.352C223.807 40.976 222.943 41.288 221.887 41.288Z" fill="#0C8CE9"/>
<path d="M113.68 5.9V12.75H104.38V41H95.8301V12.75H86.5301V5.9H113.68ZM116.271 27C116.271 24.1333 116.804 21.6167 117.871 19.45C118.971 17.2833 120.454 15.6167 122.321 14.45C124.188 13.2833 126.271 12.7 128.571 12.7C130.538 12.7 132.254 13.1 133.721 13.9C135.221 14.7 136.371 15.75 137.171 17.05V13.1H145.721V41H137.171V37.05C136.338 38.35 135.171 39.4 133.671 40.2C132.204 41 130.488 41.4 128.521 41.4C126.254 41.4 124.188 40.8167 122.321 39.65C120.454 38.45 118.971 36.7667 117.871 34.6C116.804 32.4 116.271 29.8667 116.271 27ZM137.171 27.05C137.171 24.9167 136.571 23.2333 135.371 22C134.204 20.7667 132.771 20.15 131.071 20.15C129.371 20.15 127.921 20.7667 126.721 22C125.554 23.2 124.971 24.8667 124.971 27C124.971 29.1333 125.554 30.8333 126.721 32.1C127.921 33.3333 129.371 33.95 131.071 33.95C132.771 33.95 134.204 33.3333 135.371 32.1C136.571 30.8667 137.171 29.1833 137.171 27.05ZM160.457 17.75C161.457 16.2167 162.707 15.0167 164.207 14.15C165.707 13.25 167.373 12.8 169.207 12.8V21.85H166.857C164.723 21.85 163.123 22.3167 162.057 23.25C160.99 24.15 160.457 25.75 160.457 28.05V41H151.907V13.1H160.457V17.75ZM177.593 10.2C176.093 10.2 174.86 9.76666 173.893 8.9C172.96 8 172.493 6.9 172.493 5.6C172.493 4.26667 172.96 3.16666 173.893 2.3C174.86 1.4 176.093 0.949997 177.593 0.949997C179.06 0.949997 180.26 1.4 181.193 2.3C182.16 3.16666 182.643 4.26667 182.643 5.6C182.643 6.9 182.16 8 181.193 8.9C180.26 9.76666 179.06 10.2 177.593 10.2ZM181.843 13.1V41H173.293V13.1H181.843ZM200.739 41.4C198.006 41.4 195.539 40.8167 193.339 39.65C191.173 38.4833 189.456 36.8167 188.189 34.65C186.956 32.4833 186.339 29.95 186.339 27.05C186.339 24.1833 186.973 21.6667 188.239 19.5C189.506 17.3 191.239 15.6167 193.439 14.45C195.639 13.2833 198.106 12.7 200.839 12.7C203.573 12.7 206.039 13.2833 208.239 14.45C210.439 15.6167 212.173 17.3 213.439 19.5C214.706 21.6667 215.339 24.1833 215.339 27.05C215.339 29.9167 214.689 32.45 213.389 34.65C212.123 36.8167 210.373 38.4833 208.139 39.65C205.939 40.8167 203.473 41.4 200.739 41.4ZM200.739 34C202.373 34 203.756 33.4 204.889 32.2C206.056 31 206.639 29.2833 206.639 27.05C206.639 24.8167 206.073 23.1 204.939 21.9C203.839 20.7 202.473 20.1 200.839 20.1C199.173 20.1 197.789 20.7 196.689 21.9C195.589 23.0667 195.039 24.7833 195.039 27.05C195.039 29.2833 195.573 31 196.639 32.2C197.739 33.4 199.106 34 200.739 34Z" fill="white"/>
</svg>
